<svg xmlns="http://www.w3.org/2000/svg" width="50" height="50"><g><line x1="2" y1="2" x2="48" y2="48" stroke="lightpink"></line><line x1="48" y1="2" x2="2" y2="48" stroke="lightpink"></line><line x1="25" y1="2" x2="25" y2="48" stroke="lightpink"></line><line x1="2" y1="25" x2="48" y2="25" stroke="lightpink"></line><line x1="2" y1="2" x2="2" y2="48" stroke-linecap="round" stroke-width="2" stroke="pink"></line><line x1="48" y1="2" x2="48" y2="48" stroke-linecap="round" stroke-width="2" stroke="pink"></line><line x1="2" y1="2" x2="48" y2="2" stroke-linecap="butt" stroke-width="2" stroke="pink"></line><line x1="2" y1="48" x2="48" y2="48" stroke-linecap="butt" stroke-width="2" stroke="pink"></line></g><defs><clipPath id="mask-637"><path d="M 467 799 Q 497 777 529 750 Q 545 737 564 739 Q 576 740 580 756 Q 584 774 571 807 Q 556 841 457 853 Q 438 854 432 852 Q 426 846 429 832 Q 435 819 467 799 Z"></path></clipPath><clipPath id="mask-638"><path d="M 277 656 Q 277 677 254 696 Q 236 712 233 686 Q 237 656 194 602 Q 149 554 165 507 Q 166 498 171 491 Q 184 464 206 491 Q 221 512 268 623 L 277 656 Z"></path></clipPath><clipPath id="mask-639"><path d="M 268 623 Q 289 611 326 619 Q 476 665 705 681 Q 730 684 741 681 Q 759 668 756 661 Q 756 657 725 583 Q 718 570 725 565 Q 732 561 749 573 Q 804 613 850 627 Q 887 640 887 649 Q 886 659 812 712 Q 788 730 707 714 Q 503 690 373 668 Q 324 661 277 656 C 247 653 239 632 268 623 Z"></path></clipPath><clipPath id="mask-640"><path d="M 518 399 Q 642 495 669 501 Q 688 508 683 524 Q 680 540 614 578 Q 595 588 572 580 Q 511 558 418 532 Q 393 525 335 527 Q 311 528 319 508 Q 326 495 346 483 Q 377 467 411 486 Q 433 493 546 534 Q 559 538 571 532 Q 584 525 578 511 Q 545 465 508 409 C 491 384 494 381 518 399 Z"></path></clipPath><clipPath id="mask-641"><path d="M 551 333 Q 536 381 518 399 L 508 409 Q 498 419 487 424 Q 477 431 471 423 Q 467 419 474 405 Q 490 371 500 328 L 507 289 Q 525 120 490 66 Q 489 65 487 62 Q 478 58 377 89 Q 367 92 360 88 Q 354 87 370 74 Q 437 19 475 -30 Q 493 -49 511 -40 Q 535 -27 553 27 Q 578 120 558 293 L 551 333 Z"></path></clipPath><clipPath id="mask-642"><path d="M 558 293 Q 718 311 889 296 Q 911 293 918 301 Q 925 314 914 325 Q 886 352 844 371 Q 831 377 806 369 Q 737 356 667 346 Q 600 340 551 333 L 500 328 Q 491 331 308 309 Q 241 299 139 298 Q 126 299 124 288 Q 123 276 141 262 Q 157 250 187 238 Q 197 234 214 242 Q 230 246 303 259 Q 393 280 507 289 L 558 293 Z"></path></clipPath><clipPath id="mask-643"><path d="M 467 799 Q 497 777 529 750 Q 545 737 564 739 Q 576 740 580 756 Q 584 774 571 807 Q 556 841 457 853 Q 438 854 432 852 Q 426 846 429 832 Q 435 819 467 799 Z"></path></clipPath><clipPath id="mask-644"><path d="M 277 656 Q 277 677 254 696 Q 236 712 233 686 Q 237 656 194 602 Q 149 554 165 507 Q 166 498 171 491 Q 184 464 206 491 Q 221 512 268 623 L 277 656 Z"></path></clipPath><clipPath id="mask-645"><path d="M 268 623 Q 289 611 326 619 Q 476 665 705 681 Q 730 684 741 681 Q 759 668 756 661 Q 756 657 725 583 Q 718 570 725 565 Q 732 561 749 573 Q 804 613 850 627 Q 887 640 887 649 Q 886 659 812 712 Q 788 730 707 714 Q 503 690 373 668 Q 324 661 277 656 C 247 653 239 632 268 623 Z"></path></clipPath><clipPath id="mask-646"><path d="M 518 399 Q 642 495 669 501 Q 688 508 683 524 Q 680 540 614 578 Q 595 588 572 580 Q 511 558 418 532 Q 393 525 335 527 Q 311 528 319 508 Q 326 495 346 483 Q 377 467 411 486 Q 433 493 546 534 Q 559 538 571 532 Q 584 525 578 511 Q 545 465 508 409 C 491 384 494 381 518 399 Z"></path></clipPath><clipPath id="mask-647"><path d="M 551 333 Q 536 381 518 399 L 508 409 Q 498 419 487 424 Q 477 431 471 423 Q 467 419 474 405 Q 490 371 500 328 L 507 289 Q 525 120 490 66 Q 489 65 487 62 Q 478 58 377 89 Q 367 92 360 88 Q 354 87 370 74 Q 437 19 475 -30 Q 493 -49 511 -40 Q 535 -27 553 27 Q 578 120 558 293 L 551 333 Z"></path></clipPath><clipPath id="mask-648"><path d="M 558 293 Q 718 311 889 296 Q 911 293 918 301 Q 925 314 914 325 Q 886 352 844 371 Q 831 377 806 369 Q 737 356 667 346 Q 600 340 551 333 L 500 328 Q 491 331 308 309 Q 241 299 139 298 Q 126 299 124 288 Q 123 276 141 262 Q 157 250 187 238 Q 197 234 214 242 Q 230 246 303 259 Q 393 280 507 289 L 558 293 Z"></path></clipPath><clipPath id="mask-649"><path d="M 467 799 Q 497 777 529 750 Q 545 737 564 739 Q 576 740 580 756 Q 584 774 571 807 Q 556 841 457 853 Q 438 854 432 852 Q 426 846 429 832 Q 435 819 467 799 Z"></path></clipPath><clipPath id="mask-650"><path d="M 277 656 Q 277 677 254 696 Q 236 712 233 686 Q 237 656 194 602 Q 149 554 165 507 Q 166 498 171 491 Q 184 464 206 491 Q 221 512 268 623 L 277 656 Z"></path></clipPath><clipPath id="mask-651"><path d="M 268 623 Q 289 611 326 619 Q 476 665 705 681 Q 730 684 741 681 Q 759 668 756 661 Q 756 657 725 583 Q 718 570 725 565 Q 732 561 749 573 Q 804 613 850 627 Q 887 640 887 649 Q 886 659 812 712 Q 788 730 707 714 Q 503 690 373 668 Q 324 661 277 656 C 247 653 239 632 268 623 Z"></path></clipPath><clipPath id="mask-652"><path d="M 518 399 Q 642 495 669 501 Q 688 508 683 524 Q 680 540 614 578 Q 595 588 572 580 Q 511 558 418 532 Q 393 525 335 527 Q 311 528 319 508 Q 326 495 346 483 Q 377 467 411 486 Q 433 493 546 534 Q 559 538 571 532 Q 584 525 578 511 Q 545 465 508 409 C 491 384 494 381 518 399 Z"></path></clipPath><clipPath id="mask-653"><path d="M 551 333 Q 536 381 518 399 L 508 409 Q 498 419 487 424 Q 477 431 471 423 Q 467 419 474 405 Q 490 371 500 328 L 507 289 Q 525 120 490 66 Q 489 65 487 62 Q 478 58 377 89 Q 367 92 360 88 Q 354 87 370 74 Q 437 19 475 -30 Q 493 -49 511 -40 Q 535 -27 553 27 Q 578 120 558 293 L 551 333 Z"></path></clipPath><clipPath id="mask-654"><path d="M 558 293 Q 718 311 889 296 Q 911 293 918 301 Q 925 314 914 325 Q 886 352 844 371 Q 831 377 806 369 Q 737 356 667 346 Q 600 340 551 333 L 500 328 Q 491 331 308 309 Q 241 299 139 298 Q 126 299 124 288 Q 123 276 141 262 Q 157 250 187 238 Q 197 234 214 242 Q 230 246 303 259 Q 393 280 507 289 L 558 293 Z"></path></clipPath></defs><g transform="
    translate(5, 40.15625)
    scale(0.0390625, -0.0390625)
  "><g style="opacity: 1;"><path clip-path="url(http://localhost:3000/#mask-637)" d="M 348.6 888.7 L 526 800 L 561 758" stroke="rgba(221,221,221,1)" stroke-width="200" fill="none" stroke-linecap="round" stroke-linejoin="miter" stroke-dasharray="253.05873874133732,253.05873874133732" style="opacity: 1; stroke-dashoffset: 0;"></path><path clip-path="url(http://localhost:3000/#mask-638)" d="M 218.4 787.7 L 253 657 L 241 622 L 200 553 L 187 494" stroke="rgba(221,221,221,1)" stroke-width="200" fill="none" stroke-linecap="round" stroke-linejoin="miter" stroke-dasharray="312.8483114013953,312.8483114013953" style="opacity: 1; stroke-dashoffset: 0;"></path><path clip-path="url(http://localhost:3000/#mask-639)" d="M 189.8 576.3 L 293 637 L 486 672 L 741 701 L 783 687 L 798 672 L 802 657 L 730 572" stroke="rgba(221,221,221,1)" stroke-width="200" fill="none" stroke-linecap="round" stroke-linejoin="miter" stroke-dasharray="764.9196647142758,764.9196647142758" style="opacity: 1; stroke-dashoffset: 0;"></path><path clip-path="url(http://localhost:3000/#mask-640)" d="M 240.6 559.7 L 352 504 L 385 502 L 561 556 L 598 550 L 621 525 L 607 501 L 520 411" stroke="rgba(221,221,221,1)" stroke-width="200" fill="none" stroke-linecap="round" stroke-linejoin="miter" stroke-dasharray="566.1697677375822,566.1697677375822" style="opacity: 1; stroke-dashoffset: 0;"></path><path clip-path="url(http://localhost:3000/#mask-641)" d="M 424.2 501.7 L 515 363 L 532 295 L 540 206 L 539 138 L 523 51 L 498 16 L 365 85" stroke="rgba(221,221,221,1)" stroke-width="200" fill="none" stroke-linecap="round" stroke-linejoin="miter" stroke-dasharray="674.4971861431178,674.4971861431178" style="opacity: 1; stroke-dashoffset: 0;"></path><path clip-path="url(http://localhost:3000/#mask-642)" d="M 40.1 314.3 L 197 268 L 374 297 L 822 337 L 861 329 L 907 310" stroke="rgba(221,221,221,1)" stroke-width="200" fill="none" stroke-linecap="round" stroke-linejoin="miter" stroke-dasharray="882.3239842299746,882.3239842299746" style="opacity: 1; stroke-dashoffset: 0;"></path></g><g style="opacity: 1;"><path clip-path="url(http://localhost:3000/#mask-643)" d="M 348.6 888.7 L 526 800 L 561 758" stroke="rgba(85,85,85,1)" stroke-width="200" fill="none" stroke-linecap="round" stroke-linejoin="miter" stroke-dasharray="253.05873874133732,253.05873874133732" style="opacity: 1; stroke-dashoffset: 0;"></path><path clip-path="url(http://localhost:3000/#mask-644)" d="M 218.4 787.7 L 253 657 L 241 622 L 200 553 L 187 494" stroke="rgba(85,85,85,1)" stroke-width="200" fill="none" stroke-linecap="round" stroke-linejoin="miter" stroke-dasharray="312.8483114013953,312.8483114013953" style="opacity: 1; stroke-dashoffset: 0;"></path><path clip-path="url(http://localhost:3000/#mask-645)" d="M 189.8 576.3 L 293 637 L 486 672 L 741 701 L 783 687 L 798 672 L 802 657 L 730 572" stroke="rgba(85,85,85,1)" stroke-width="200" fill="none" stroke-linecap="round" stroke-linejoin="miter" stroke-dasharray="764.9196647142758,764.9196647142758" style="opacity: 1; stroke-dashoffset: 0;"></path><path clip-path="url(http://localhost:3000/#mask-646)" d="M 240.6 559.7 L 352 504 L 385 502 L 561 556 L 598 550 L 621 525 L 607 501 L 520 411" stroke="rgba(85,85,85,1)" stroke-width="200" fill="none" stroke-linecap="round" stroke-linejoin="miter" stroke-dasharray="566.1697677375822,566.1697677375822" style="opacity: 1; stroke-dashoffset: 0;"></path><path clip-path="url(http://localhost:3000/#mask-647)" d="M 424.2 501.7 L 515 363 L 532 295 L 540 206 L 539 138 L 523 51 L 498 16 L 365 85" stroke="rgba(85,85,85,1)" stroke-width="200" fill="none" stroke-linecap="round" stroke-linejoin="miter" stroke-dasharray="674.4971861431178,674.4971861431178" style="opacity: 1; stroke-dashoffset: 0;"></path><path clip-path="url(http://localhost:3000/#mask-648)" d="M 40.1 314.3 L 197 268 L 374 297 L 822 337 L 861 329 L 907 310" stroke="rgba(85,85,85,1)" stroke-width="200" fill="none" stroke-linecap="round" stroke-linejoin="miter" stroke-dasharray="882.3239842299746,882.3239842299746" style="opacity: 1; stroke-dashoffset: 0;"></path></g><g style="opacity: 1;"><path clip-path="url(http://localhost:3000/#mask-649)" d="M 348.6 888.7 L 526 800 L 561 758" stroke="rgba(170,170,255,1)" stroke-width="200" fill="none" stroke-linecap="round" stroke-linejoin="miter" stroke-dasharray="253.05873874133732,253.05873874133732" style="opacity: 0; stroke-dashoffset: 0;"></path><path clip-path="url(http://localhost:3000/#mask-650)" d="M 218.4 787.7 L 253 657 L 241 622 L 200 553 L 187 494" stroke="rgba(170,170,255,1)" stroke-width="200" fill="none" stroke-linecap="round" stroke-linejoin="miter" stroke-dasharray="312.8483114013953,312.8483114013953" style="opacity: 0; stroke-dashoffset: 0;"></path><path clip-path="url(http://localhost:3000/#mask-651)" d="M 189.8 576.3 L 293 637 L 486 672 L 741 701 L 783 687 L 798 672 L 802 657 L 730 572" stroke="rgba(170,170,255,1)" stroke-width="200" fill="none" stroke-linecap="round" stroke-linejoin="miter" stroke-dasharray="764.9196647142758,764.9196647142758" style="opacity: 0; stroke-dashoffset: 0;"></path><path clip-path="url(http://localhost:3000/#mask-652)" d="M 240.6 559.7 L 352 504 L 385 502 L 561 556 L 598 550 L 621 525 L 607 501 L 520 411" stroke="rgba(170,170,255,1)" stroke-width="200" fill="none" stroke-linecap="round" stroke-linejoin="miter" stroke-dasharray="566.1697677375822,566.1697677375822" style="opacity: 0; stroke-dashoffset: 0;"></path><path clip-path="url(http://localhost:3000/#mask-653)" d="M 424.2 501.7 L 515 363 L 532 295 L 540 206 L 539 138 L 523 51 L 498 16 L 365 85" stroke="rgba(170,170,255,1)" stroke-width="200" fill="none" stroke-linecap="round" stroke-linejoin="miter" stroke-dasharray="674.4971861431178,674.4971861431178" style="opacity: 0; stroke-dashoffset: 0;"></path><path clip-path="url(http://localhost:3000/#mask-654)" d="M 40.1 314.3 L 197 268 L 374 297 L 822 337 L 861 329 L 907 310" stroke="rgba(170,170,255,1)" stroke-width="200" fill="none" stroke-linecap="round" stroke-linejoin="miter" stroke-dasharray="882.3239842299746,882.3239842299746" style="opacity: 0; stroke-dashoffset: 0;"></path></g></g></svg>